<svg width="145" height="104" viewBox="0 0 145 104" fill="none" xmlns="http://www.w3.org/2000/svg">
<g clip-path="url(#clip0_2_5)">
<path d="M72.35 25.2787C66.14 25.2787 60.53 27.7976 56.465 31.8719C52.405 35.9462 49.9 41.5809 49.9 47.8128C49.9 55.9012 54.125 62.981 60.485 66.955C60.775 67.1356 61.065 67.3112 61.365 67.4718C64.61 69.3032 68.355 70.3419 72.35 70.3419C74.26 70.3419 76.115 70.106 77.89 69.6545C79.965 69.1276 81.92 68.3147 83.715 67.256C85.37 66.2826 86.89 65.1035 88.235 63.7537C92.295 59.6744 94.805 54.0447 94.805 47.8128C94.805 35.4043 84.715 25.2787 72.35 25.2787ZM77.44 68.4251C75.735 68.9971 73.985 69.2029 72.35 69.2029C68.97 69.2029 65.11 68.3298 62.13 65.1386C61.865 64.8626 61.61 64.5616 61.365 64.2455C58.855 61.0392 57.125 55.8962 57.125 47.8128C57.125 29.8347 65.665 26.4177 72.35 26.4177C79.035 26.4177 87.58 29.8347 87.58 47.8128C87.58 56.418 85.62 61.6865 82.845 64.8426C81.245 66.664 79.365 67.7829 77.44 68.4251Z" fill="#9344AD"/>
<path d="M89.345 82.8859L89.285 82.7203L89.11 82.2437L89.05 82.0781L88.36 80.1563L88.31 80.0209L88.14 79.5392L88.09 79.4037L87.445 77.6224L87.405 77.512L87.235 77.0354L87.195 76.925L86.6 75.2692L86.57 75.1889L86.395 74.7122L86.365 74.6219L85.815 73.0915L85.795 73.0313L85.62 72.5547L85.6 72.4944L85.09 71.0744L85.075 71.0293L84.905 70.5526L84.89 70.5175L84.415 69.1979V69.1828L84.235 68.7061L84.225 68.6811L83.785 67.4618L83.715 67.2561L83.615 66.9851L82.845 64.8426L74.53 41.7566H68.68L61.365 64.2455L60.58 66.669L60.485 66.955L60.42 67.1607L60.01 68.4101V68.4302L59.845 68.9169V68.937L59.405 70.2867L59.395 70.3218L59.235 70.8085L59.22 70.8537L58.75 72.2937L58.73 72.359L58.57 72.8457L58.55 72.9059L58.045 74.4664L58.015 74.5517L57.86 75.0384L57.83 75.1237L57.28 76.8046L57.245 76.9149L57.09 77.3966L57.05 77.5171L56.46 79.3284L56.415 79.4639L56.26 79.9506L56.215 80.0861L55.58 82.0429L55.525 82.2085L55.365 82.6952L55.31 82.8658L54.765 84.5467H55.84L56.24 83.3074L56.295 83.1318L56.455 82.6551L56.51 82.4845L57.14 80.5377L57.185 80.4022L57.34 79.9205L57.385 79.78L57.97 77.9787L58.01 77.8633L58.165 77.3816L58.2 77.2712L58.74 75.6003L58.93 75.0283L58.955 74.943L59.455 73.3926L59.475 73.3274L59.63 72.8457L59.65 72.7855L60.12 71.3454L60.135 71.3002L60.29 70.8186L60.3 70.7834L60.735 69.4437V69.4287L60.895 68.942V68.9219L61.095 68.3047L61.3 67.6825L61.365 67.4718L61.455 67.1958L62.13 65.1386L68.86 44.5162L77.395 68.3047L77.44 68.4252L77.795 69.3885L77.815 69.4437L77.89 69.6545L77.965 69.8652L78.4 71.0744L78.41 71.0945L78.58 71.5712V71.5862L79.055 72.8858L79.07 72.9259L79.24 73.3976L79.255 73.4428L79.76 74.8477L79.78 74.9079L79.955 75.3846L79.975 75.4448L80.52 76.9651L80.55 77.0504L80.725 77.5221L80.755 77.6124L81.345 79.2481L81.385 79.3585L81.555 79.8352L81.595 79.9456L82.23 81.7168L82.28 81.8573L82.45 82.329L82.5 82.4694L83.19 84.3761L83.25 84.5467H89.94L89.345 82.8859Z" fill="#9344AD"/>
<path d="M42.28 91.8975C42.11 91.8774 41.9401 91.8373 41.7751 91.7771C41.6101 91.7219 41.45 91.6416 41.29 91.5413C41.13 91.4409 40.975 91.3155 40.825 91.165C40.575 90.9191 40.3951 90.6431 40.2751 90.337C40.1551 90.031 40.1 89.7249 40.105 89.4088C40.11 89.0927 40.1801 88.7816 40.3101 88.4805C40.4401 88.1745 40.63 87.8985 40.875 87.6476L40.885 87.6376C41.13 87.3917 41.4051 87.201 41.7051 87.0706C42.0101 86.9401 42.32 86.8649 42.64 86.8548C42.955 86.8448 43.265 86.895 43.575 87.0154C43.885 87.1358 44.16 87.3164 44.41 87.5673C44.565 87.7229 44.695 87.8784 44.795 88.0289C44.895 88.1795 44.975 88.335 45.03 88.4906C45.09 88.6461 45.13 88.8067 45.16 88.9672C45.185 89.1278 45.205 89.2984 45.21 89.469H44.84C44.84 89.3235 44.825 89.178 44.805 89.0325C44.785 88.887 44.7501 88.7465 44.7 88.606C44.65 88.4655 44.585 88.33 44.5 88.1895C44.415 88.054 44.31 87.9186 44.18 87.7931C43.97 87.5824 43.74 87.4318 43.48 87.3315C43.225 87.2311 42.96 87.191 42.69 87.201C42.42 87.2111 42.155 87.2763 41.89 87.3917C41.63 87.5071 41.39 87.6727 41.17 87.8935L41.16 87.9035C40.945 88.1243 40.78 88.3651 40.665 88.6311C40.55 88.897 40.49 89.1679 40.48 89.4389C40.47 89.7098 40.5151 89.9758 40.6151 90.2367C40.7151 90.4976 40.865 90.7284 41.075 90.9392C41.325 91.19 41.59 91.3606 41.87 91.456C42.145 91.5463 42.4601 91.5914 42.8101 91.5914V91.9326C42.6351 91.9326 42.455 91.9176 42.285 91.8925L42.28 91.8975Z" fill="#9344AD"/>
<path d="M50.81 96.8398C50.545 97.0355 50.26 97.171 49.95 97.2513C49.64 97.3316 49.325 97.3466 48.995 97.2964C48.665 97.2463 48.34 97.1208 48.03 96.9201C47.715 96.7194 47.47 96.4786 47.29 96.1976C47.11 95.9166 46.995 95.6206 46.935 95.3095C46.88 94.9984 46.885 94.6823 46.95 94.3611C47.015 94.04 47.14 93.739 47.32 93.458V93.4479C47.51 93.1619 47.73 92.9261 48 92.7304C48.265 92.5347 48.55 92.3993 48.855 92.319C49.16 92.2387 49.48 92.2236 49.81 92.2688C50.14 92.319 50.46 92.4444 50.775 92.6451C51.085 92.8458 51.33 93.0867 51.51 93.3677C51.69 93.6486 51.81 93.9447 51.865 94.2558C51.92 94.5669 51.915 94.883 51.85 95.2041C51.785 95.5252 51.66 95.8263 51.48 96.1073C51.48 96.1123 51.48 96.1173 51.475 96.1173C51.295 96.4033 51.07 96.6391 50.805 96.8348L50.81 96.8398ZM51.16 95.9166C51.325 95.6607 51.435 95.3897 51.49 95.1088C51.545 94.8278 51.55 94.5518 51.505 94.2809C51.455 94.0149 51.355 93.759 51.205 93.5232C51.05 93.2874 50.85 93.0867 50.59 92.9211C50.335 92.7555 50.07 92.6552 49.795 92.61C49.52 92.5699 49.25 92.5799 48.985 92.6501C48.72 92.7204 48.475 92.8358 48.245 93.0064C48.015 93.177 47.82 93.3877 47.655 93.6436L47.645 93.6537C47.48 93.9096 47.37 94.1805 47.315 94.4615C47.26 94.7475 47.255 95.0184 47.3 95.2894C47.35 95.5553 47.45 95.8112 47.6 96.0471C47.75 96.2829 47.955 96.4836 48.21 96.6492C48.465 96.8147 48.73 96.9151 49.005 96.9552C49.28 96.9954 49.55 96.9853 49.81 96.9151C50.07 96.8499 50.32 96.7295 50.55 96.5589C50.78 96.3883 50.975 96.1775 51.14 95.9216L51.15 95.9116L51.16 95.9166Z" fill="#9344AD"/>
<path d="M58.1801 100.959C58.0451 101.085 57.8901 101.18 57.7151 101.235C57.5401 101.295 57.3501 101.321 57.1401 101.311C56.9301 101.301 56.7151 101.255 56.4951 101.17C56.1301 101.03 55.8201 100.844 55.5751 100.608C55.3301 100.372 55.1101 100.081 54.9301 99.73L55.2501 99.5594C55.3301 99.725 55.4201 99.8755 55.5101 100.006C55.6001 100.136 55.7051 100.257 55.8151 100.362C55.9251 100.468 56.0451 100.563 56.1801 100.643C56.3151 100.729 56.4651 100.799 56.6351 100.864C56.8051 100.929 56.9701 100.964 57.1301 100.974C57.2901 100.984 57.4401 100.964 57.5701 100.924C57.7001 100.884 57.8151 100.814 57.9151 100.723C58.0151 100.633 58.0901 100.523 58.1401 100.392V100.377C58.1901 100.257 58.2151 100.136 58.2151 100.026C58.2151 99.9157 58.1801 99.8002 58.1101 99.6848C58.0401 99.5694 57.9351 99.449 57.7951 99.3186C57.6551 99.1931 57.4601 99.0526 57.2201 98.9021C56.9651 98.7415 56.7551 98.586 56.5901 98.4304C56.4201 98.2799 56.2951 98.1294 56.2101 97.9789C56.1251 97.8283 56.0801 97.6728 56.0751 97.5172C56.0701 97.3617 56.1001 97.1911 56.1651 97.0205V97.0054C56.2351 96.8348 56.3301 96.6893 56.4601 96.5739C56.5901 96.4585 56.7401 96.3682 56.9151 96.308C57.0851 96.2478 57.2751 96.2227 57.4751 96.2277C57.6751 96.2327 57.8851 96.2779 58.1001 96.3582C58.4301 96.4836 58.7001 96.6392 58.9101 96.8248C59.1201 97.0105 59.3001 97.2413 59.4601 97.5172L59.1401 97.7029C58.9951 97.4319 58.8251 97.2162 58.6351 97.0506C58.4451 96.885 58.2251 96.7596 57.9701 96.6642C57.8001 96.599 57.6351 96.5639 57.4851 96.5589C57.3301 96.5539 57.1901 96.5689 57.0601 96.609C56.9301 96.6492 56.8201 96.7144 56.7301 96.7997C56.6401 96.885 56.5701 96.9854 56.5251 97.1058V97.1208C56.4751 97.2413 56.4501 97.3617 56.4501 97.4721C56.4501 97.5825 56.4851 97.6979 56.5501 97.8183C56.6151 97.9387 56.7251 98.0641 56.8751 98.1946C57.0251 98.3251 57.2251 98.4706 57.4751 98.6311C57.9651 98.9422 58.2901 99.2433 58.4501 99.5343C58.6101 99.8253 58.6251 100.136 58.5001 100.473V100.488C58.4251 100.673 58.3201 100.829 58.1901 100.954L58.1801 100.959Z" fill="#9344AD"/>
<path d="M67.3901 103.754L68.0351 99.5343L65.6901 102.038H65.6651L64.1751 98.9422L63.5301 103.162L63.1851 103.107L63.9301 98.2448L64.2701 98.295L65.7751 101.471L68.1601 98.8971L68.5001 98.9472L67.7551 103.809L67.3951 103.754H67.3901Z" fill="#9344AD"/>
<path d="M73.3401 104L73.0601 99.0928L76.5401 98.8921L76.5601 99.2232L73.4451 99.4039L73.5551 101.346L76.3601 101.185L76.3801 101.516L73.5751 101.677L73.6901 103.654L76.8401 103.473L76.8601 103.804L73.3451 104.005L73.3401 104Z" fill="#9344AD"/>
<path d="M82.5901 98.0842L83.7251 102.53L83.3701 102.62L82.2351 98.1745L80.5801 98.601L80.5001 98.2799L84.1601 97.3366L84.2401 97.6577L82.5851 98.0842H82.5901Z" fill="#9344AD"/>
<path d="M90.2051 100.287L88.2401 95.7811L88.5751 95.6356L90.5401 100.141L90.2051 100.287Z" fill="#9344AD"/>
<path d="M98.3701 95.2041C98.3101 95.3697 98.2401 95.5252 98.1501 95.6708C98.0601 95.8213 97.9501 95.9618 97.8201 96.0973C97.6901 96.2327 97.5351 96.3582 97.3551 96.4786C97.0601 96.6693 96.7551 96.7947 96.4351 96.8499C96.1151 96.9051 95.8001 96.8951 95.4951 96.8248C95.1901 96.7546 94.9001 96.6241 94.6301 96.4334C94.3601 96.2428 94.1301 95.9969 93.9351 95.7059L93.9251 95.6958C93.7351 95.4048 93.6101 95.0987 93.5401 94.7726C93.4751 94.4465 93.4701 94.1253 93.5251 93.8142C93.5801 93.5031 93.6951 93.2071 93.8701 92.9311C94.0451 92.6552 94.2851 92.4193 94.5801 92.2237C94.7651 92.1032 94.9401 92.0079 95.1101 91.9427C95.2801 91.8774 95.4451 91.8323 95.6101 91.8072C95.7751 91.7821 95.9401 91.7721 96.1051 91.7821C96.2701 91.7871 96.4351 91.8072 96.6051 91.8373L96.5351 92.2036C96.3901 92.1785 96.2401 92.1584 96.0951 92.1484C95.9501 92.1384 95.8051 92.1484 95.6551 92.1634C95.5101 92.1835 95.3601 92.2237 95.2101 92.2738C95.0601 92.329 94.9051 92.4043 94.7551 92.5046C94.5101 92.6652 94.3101 92.8659 94.1601 93.0967C94.0101 93.3275 93.9151 93.5784 93.8701 93.8494C93.8251 94.1153 93.8301 94.3913 93.8901 94.6722C93.9501 94.9532 94.0601 95.2242 94.2301 95.4801L94.2401 95.4901C94.4101 95.746 94.6101 95.9618 94.8501 96.1274C95.0851 96.2929 95.3351 96.4083 95.6001 96.4736C95.8651 96.5388 96.1301 96.5488 96.4051 96.5087C96.6801 96.4686 96.9401 96.3632 97.1851 96.2026C97.4801 96.0069 97.7051 95.7811 97.8501 95.5303C97.9951 95.2794 98.1051 94.9783 98.1751 94.6321L98.5101 94.6973C98.4701 94.873 98.4201 95.0436 98.3651 95.2091L98.3701 95.2041Z" fill="#9344AD"/>
<path d="M104.6 89.3134C104.66 89.4891 104.675 89.6697 104.66 89.8553C104.645 90.041 104.585 90.2216 104.49 90.4123C104.395 90.5979 104.26 90.7736 104.095 90.9442C103.815 91.2201 103.52 91.4208 103.2 91.5513C102.885 91.6818 102.53 91.752 102.135 91.7721L102.115 91.4108C102.3 91.4108 102.47 91.3907 102.63 91.3606C102.79 91.3305 102.94 91.2904 103.08 91.2302C103.22 91.17 103.355 91.0997 103.485 91.0144C103.615 90.9291 103.745 90.8187 103.875 90.6933C104.005 90.5678 104.105 90.4273 104.18 90.2869C104.255 90.1413 104.3 90.0009 104.32 89.8654C104.335 89.7299 104.32 89.5944 104.285 89.469C104.245 89.3435 104.175 89.2281 104.075 89.1278L104.065 89.1177C103.975 89.0224 103.875 88.9572 103.775 88.907C103.675 88.8619 103.56 88.8468 103.425 88.8619C103.29 88.8769 103.135 88.9221 102.965 88.9973C102.79 89.0726 102.585 89.193 102.345 89.3486C102.095 89.5141 101.865 89.6396 101.655 89.7299C101.445 89.8202 101.26 89.8704 101.085 89.8854C100.91 89.9005 100.755 89.8804 100.61 89.8152C100.465 89.75 100.33 89.6597 100.195 89.5242L100.185 89.5141C100.06 89.3837 99.965 89.2332 99.915 89.0676C99.86 88.902 99.845 88.7264 99.86 88.5457C99.88 88.3651 99.93 88.1845 100.025 87.9988C100.115 87.8182 100.24 87.6476 100.405 87.487C100.655 87.2361 100.91 87.0555 101.165 86.9451C101.42 86.8347 101.705 86.7595 102.02 86.7294L102.055 87.0957C101.745 87.1157 101.48 87.181 101.255 87.2863C101.03 87.3917 100.82 87.5422 100.625 87.7329C100.495 87.8633 100.395 87.9938 100.325 88.1343C100.255 88.2748 100.21 88.4103 100.195 88.5407C100.18 88.6762 100.195 88.8016 100.23 88.9221C100.27 89.0425 100.33 89.1479 100.42 89.2382L100.43 89.2482C100.52 89.3435 100.62 89.4138 100.72 89.4589C100.825 89.5041 100.94 89.5242 101.075 89.5091C101.21 89.4941 101.37 89.4489 101.55 89.3686C101.73 89.2883 101.945 89.1679 102.195 89.0074C102.68 88.6913 103.09 88.5207 103.42 88.4905C103.75 88.4655 104.04 88.5809 104.29 88.8368L104.3 88.8468C104.435 88.9873 104.535 89.1428 104.595 89.3185L104.6 89.3134Z" fill="#9344AD"/>
<path d="M29.6 27.6571C30.21 26.3324 31.66 24.9475 35.205 26.5883C38.745 28.2291 38.64 30.2311 38.03 31.5608C37.42 32.8854 35.97 34.2703 32.425 32.6295C28.88 30.9887 28.99 28.9867 29.6 27.6571ZM38.255 31.6611C38.82 30.4268 38.84 29.0871 38.405 27.9079C37.97 26.7288 37.09 25.7203 35.865 25.1533C33.42 24.0243 30.505 25.0981 29.38 27.5517C28.815 28.786 28.795 30.1257 29.23 31.3049C29.66 32.484 30.545 33.4925 31.77 34.0595C34.225 35.1985 37.125 34.1248 38.255 31.6611Z" fill="#9344AD"/>
<path d="M34.815 19.1271L36.085 17.5767C36.92 16.5581 38.435 16.4076 39.46 17.2505C40.475 18.0885 40.6251 19.6088 39.7901 20.6274L38.5201 22.1778L34.8101 19.1221L34.815 19.1271ZM38.715 22.3384L40.71 19.8998C41.635 18.7709 41.4701 17.1 40.3451 16.1717C39.2101 15.2385 37.545 15.399 36.62 16.528L34.625 18.9666L33.7401 20.0453L40.9151 25.9561L41.8 24.8773L38.715 22.3384Z" fill="#9344AD"/>
<path d="M49.5351 17.4161C51.6001 15.8055 50.8601 13.9188 50.2151 13.0859L46.2001 7.90775L45.9551 8.09841L50.0551 13.392C50.9901 14.5962 50.7151 16.1818 49.6501 17.0147C48.8301 17.657 47.1451 18.2892 45.7201 16.4477L41.7801 11.3599L40.6801 12.2179L44.4701 17.11C46.1051 19.2225 48.2951 18.3895 49.5351 17.4211V17.4161Z" fill="#9344AD"/>
<path d="M58.825 11.7563L58.715 11.5305L54.465 13.6128L50.505 5.46417L49.255 6.07632L53.32 14.4457L54.57 13.8335L58.825 11.7563Z" fill="#9344AD"/>
<path d="M65.84 9.83954L65.7751 9.59869L61.2001 10.8079L60.0351 6.36735L63.9101 5.34376L63.8451 5.10291L59.9751 6.12651L58.9651 2.278L63.5401 1.06876L63.4801 0.827911L58.9001 2.03716L57.5551 2.39341L59.9201 11.4L61.2651 11.0488L65.84 9.83954Z" fill="#9344AD"/>
<path d="M67.0851 1.08882L73.9451 9.3177L74.1951 9.30767L73.7951 0L73.5451 0.0100352L73.8501 7.07483L68.1951 0.240845L67.0501 0.291021L66.9101 0.296039L66.8051 0.301057L67.2051 9.60872L67.4551 9.59869L67.0851 1.08882Z" fill="#9344AD"/>
<path d="M78.43 9.89973L79.8 10.1506L81.4 1.22429L84.585 1.80131L84.63 1.56047L81.445 0.983441L80.075 0.737578L76.89 0.160553L76.845 0.401398L80.03 0.978423L78.43 9.89973Z" fill="#9344AD"/>
<path d="M93.375 11.6158L90.27 9.8897L94.25 6.1867L93.37 11.6208L93.375 11.6158ZM93.335 11.8767L92.78 15.3288L94.055 16.0363L95.625 6.25695L94.51 5.63477L87.355 12.3032L87.56 12.4186L90.08 10.0653L93.33 11.8767H93.335Z" fill="#9344AD"/>
<path d="M97.465 19.3278C99.425 21.0639 101.135 19.9851 101.83 19.1923L106.155 14.2751L105.92 14.0694L101.5 19.097C100.495 20.241 98.895 20.2661 97.88 19.368C97.1 18.6755 96.165 17.1351 97.705 15.384L101.955 10.552L100.91 9.62878L96.825 14.2751C95.06 16.2821 96.28 18.2842 97.46 19.3278H97.465Z" fill="#9344AD"/>
<path d="M105.365 21.094L109.27 18.2992L110.52 20.0654C111.29 21.1492 111.03 22.6495 109.95 23.4222C108.88 24.1849 107.385 23.944 106.615 22.8602L105.365 21.094ZM105.52 28.6405C106.25 28.1187 107.93 26.3926 107.29 24.1849C108.17 25.1583 109.665 25.354 110.77 24.5662C111.965 23.7132 112.245 22.0574 111.39 20.8532L109.475 18.1537L108.67 17.0147L101.11 22.4187L101.915 23.5577L105.165 21.2345L106.415 23.0007C107.245 24.1698 105.98 26.5933 104.71 27.5015L105.515 28.6405H105.52Z" fill="#9344AD"/>
<path d="M111 32.479L109.635 29.1925L115.05 28.766L111 32.479ZM110.805 32.6596L108.235 35.0179L108.795 36.3676L116.075 29.6792L115.585 28.5L105.85 29.2778L105.94 29.4935L109.375 29.2175L110.805 32.6596Z" fill="#9344AD"/>
<path d="M5.65503 61.1797C5.47503 61.0693 5.29503 60.969 5.11003 60.8787C4.92503 60.7883 4.74503 60.688 4.56503 60.5776C4.17003 60.3016 3.85503 59.9956 3.63003 59.6493C3.40503 59.3081 3.36503 58.9168 3.51503 58.4752C3.64003 58.134 3.84503 57.8029 4.13003 57.4867C4.41503 57.1706 4.74503 56.8846 5.10503 56.6338C5.47003 56.3779 5.84503 56.1621 6.23503 55.9865C6.62503 55.8058 6.98503 55.6704 7.31503 55.575C7.50503 55.5198 7.71003 55.4797 7.92003 55.4496C8.13003 55.4245 8.33503 55.4145 8.53503 55.4295C8.73503 55.4446 8.92003 55.4797 9.10003 55.5449C9.28003 55.6051 9.43003 55.7055 9.55003 55.846C9.70003 55.9965 9.78503 56.1772 9.79503 56.3829C9.81003 56.5886 9.76003 56.7893 9.65003 56.98C9.59503 57.0753 9.52503 57.1154 9.44503 57.1054C9.41503 57.0904 9.39003 57.0803 9.36503 57.0653C9.33503 57.0502 9.32503 57.0101 9.32503 56.9398C9.32503 56.8595 9.32503 56.7642 9.33503 56.6639C9.34003 56.5585 9.34503 56.4632 9.34503 56.3628C9.34503 56.142 9.26503 55.9915 9.10003 55.9112C8.93503 55.8309 8.75003 55.7808 8.54503 55.7657C8.20503 55.7507 7.79003 55.8309 7.30503 56.0015C6.82003 56.1721 6.34503 56.3979 5.88003 56.6839C5.41503 56.9649 5.00503 57.286 4.65003 57.6423C4.29503 57.9985 4.09003 58.3498 4.03503 58.691C4.00503 58.8566 4.02003 59.0121 4.06503 59.1526C4.11503 59.2981 4.18503 59.4286 4.28003 59.544C4.37503 59.6594 4.48503 59.7647 4.61003 59.8551C4.73503 59.9454 4.85503 60.0257 4.98003 60.0909C5.17003 60.2013 5.35503 60.3016 5.53503 60.3919C5.71503 60.4823 5.90003 60.5826 6.09003 60.693C6.18503 60.7482 6.26503 60.7934 6.32503 60.8285C6.38503 60.8636 6.44003 60.8987 6.48003 60.9439C6.59003 61.0392 6.63003 61.1446 6.60503 61.255C6.57503 61.3654 6.50003 61.4456 6.38003 61.5008C6.31003 61.5309 6.24503 61.551 6.17503 61.5711C6.10503 61.5912 6.04003 61.6162 5.97003 61.6413C5.06503 61.9173 4.25003 62.3037 3.51503 62.8054C2.78003 63.3072 2.13003 63.9494 1.55503 64.7322C1.24003 65.1737 0.98503 65.6454 0.79503 66.1522C0.60503 66.6589 0.57003 67.1808 0.69003 67.7177C0.82503 68.375 1.21503 68.8566 1.86003 69.1627C2.56003 69.4236 3.26503 69.534 3.97503 69.4939C4.68503 69.4537 5.37003 69.3283 6.03003 69.1226C7.18003 68.7362 8.22503 68.2345 9.17003 67.6073C10.115 66.9801 11.04 66.3127 11.94 65.6002C12.28 65.3243 12.585 65.0784 12.845 64.8576C13.105 64.6368 13.33 64.4512 13.525 64.3007C13.745 64.12 13.93 63.9645 14.08 63.829C14.315 63.8842 14.345 63.9946 14.185 64.1602C14.005 64.3258 13.83 64.4913 13.66 64.6569C13.49 64.8225 13.295 64.9981 13.085 65.1938C12.875 65.3845 12.625 65.6153 12.335 65.8762C12.05 66.1371 11.7 66.4382 11.29 66.7844C10.37 67.527 9.42003 68.1943 8.43503 68.7814C7.45003 69.3735 6.42003 69.7899 5.35503 70.0408C4.72503 70.1662 4.10003 70.2315 3.47503 70.2465C2.85003 70.2616 2.26503 70.1412 1.72003 69.8953C1.32503 69.7147 0.99003 69.4889 0.71503 69.2029C0.44003 68.9219 0.24503 68.5606 0.12003 68.1191C-0.0299702 67.5019 -0.0249702 66.9098 0.14003 66.3478C0.30503 65.7859 0.54503 65.254 0.86003 64.7623C1.20003 64.2555 1.58503 63.7939 2.01003 63.3824C2.43503 62.971 2.90003 62.5997 3.40503 62.2685C3.76003 62.0327 4.12503 61.837 4.50503 61.6714C4.88003 61.5059 5.27003 61.3503 5.66503 61.1998L5.65503 61.1797Z" fill="#1F1B28"/>
<path d="M14.6701 63.8842C14.6001 64.1853 14.5751 64.5214 14.6001 64.8827C14.6201 65.249 14.6801 65.5852 14.7851 65.8912C14.8901 66.2023 15.0451 66.4633 15.2551 66.674C15.4651 66.8847 15.7401 67.0001 16.0651 67.0152C16.5851 67.0453 17.0851 66.95 17.5651 66.7392C18.0451 66.5285 18.4901 66.2977 18.9001 66.0468C19.5151 65.6905 20.0801 65.3243 20.5951 64.9529C21.1101 64.5816 21.6201 64.2053 22.1251 63.819C22.2201 63.8491 22.2601 63.8792 22.2401 63.9143C22.2201 63.9494 22.1901 63.9795 22.1451 64.0046C21.7201 64.401 21.2701 64.7623 20.8001 65.0884C20.3301 65.4096 19.8651 65.7307 19.4151 66.0468C19.1251 66.2525 18.7801 66.4733 18.3651 66.7041C17.9551 66.9399 17.5351 67.1206 17.1001 67.251C16.6701 67.3815 16.2401 67.4367 15.8151 67.4166C15.3901 67.3965 15.0201 67.236 14.7051 66.9299C14.5151 66.7392 14.3701 66.5134 14.2751 66.2475C14.1801 65.9866 14.1101 65.7206 14.0701 65.4447C14.0001 64.963 14.0001 64.4462 14.0601 63.8892C14.1201 63.3323 14.2251 62.7753 14.3701 62.2184C14.5151 61.6614 14.6801 61.1145 14.8751 60.5776C15.0651 60.0407 15.2651 59.549 15.4701 59.0924C15.6751 58.6809 15.9201 58.2193 16.2001 57.7125C16.4801 57.2058 16.7951 56.714 17.1451 56.2374C17.4951 55.7657 17.8751 55.3442 18.2851 54.9779C18.6951 54.6117 19.1251 54.3708 19.5801 54.2454C19.8251 54.1751 20.0651 54.1852 20.3001 54.2654C20.5351 54.3457 20.7101 54.4912 20.8351 54.697C20.9851 54.9729 21.0601 55.289 21.0601 55.6553C21.0601 56.0216 21.0151 56.3929 20.9251 56.7793C20.8351 57.1656 20.7101 57.5419 20.5451 57.9132C20.3801 58.2845 20.2151 58.6157 20.0501 58.9017C19.3501 60.0859 18.5301 61.0944 17.5851 61.9424C16.6401 62.7853 15.6701 63.4276 14.6701 63.8691V63.8842ZM14.6901 63.5982C14.8801 63.5279 15.1551 63.3925 15.5101 63.1868C15.8651 62.981 16.2701 62.695 16.7201 62.3338C17.1701 61.9675 17.6501 61.5109 18.1601 60.9639C18.6651 60.417 19.1651 59.7547 19.6601 58.987C19.8101 58.7411 19.9701 58.4401 20.1301 58.0889C20.2951 57.7376 20.4301 57.3764 20.5401 57.0051C20.6501 56.6338 20.7151 56.2775 20.7351 55.9313C20.7551 55.5901 20.7051 55.2991 20.5801 55.0683C20.4001 54.7371 20.1351 54.6066 19.7801 54.6769C19.4651 54.7722 19.1601 54.9378 18.8651 55.1736C18.5701 55.4095 18.3001 55.6704 18.0551 55.9564C17.8101 56.2474 17.5851 56.5485 17.3751 56.8646C17.1701 57.1807 16.9901 57.4617 16.8401 57.7075C16.2801 58.7261 15.8251 59.6945 15.4751 60.6228C15.1251 61.551 14.8601 62.5445 14.6851 63.6032L14.6901 63.5982Z" fill="#1F1B28"/>
<path d="M22.3501 64.2956C22.3751 64.5014 22.4901 64.6168 22.6901 64.6368C22.8901 64.6569 23.1051 64.6368 23.3451 64.5867C23.5851 64.5315 23.8101 64.4612 24.0251 64.3709C24.2351 64.2806 24.3751 64.2254 24.4451 64.1953C24.5151 64.1702 24.5951 64.1351 24.6901 64.0899C24.7851 64.0498 24.8801 64.0096 24.9751 63.9645C25.0851 63.9093 25.1951 63.8591 25.3051 63.819C25.3851 63.834 25.4351 63.8691 25.4501 63.9243C25.4651 63.9795 25.4351 64.0197 25.3701 64.0498C25.2751 64.105 25.1801 64.1551 25.0851 64.2053C24.9901 64.2555 24.8851 64.3057 24.7751 64.3609C24.6101 64.4411 24.4401 64.5315 24.2601 64.6268C24.0801 64.7221 23.8951 64.8074 23.6951 64.8827C23.4951 64.958 23.3001 65.0131 23.1101 65.0483C22.9201 65.0834 22.7351 65.0784 22.5551 65.0382C22.3651 64.9981 22.2051 64.9028 22.0851 64.7623C21.9601 64.6168 21.9201 64.4361 21.9601 64.2154C22.0401 63.8742 22.2251 63.6333 22.5151 63.4928C22.7051 63.4125 22.8651 63.3925 22.9851 63.4426C23.1101 63.4928 23.1901 63.5681 23.2301 63.6785C23.2551 63.7487 23.2551 63.844 23.2301 63.9645C23.2001 64.0899 23.0951 64.1852 22.9001 64.2555C22.8201 64.2856 22.7351 64.3057 22.6551 64.3157C22.5751 64.3308 22.4701 64.3207 22.3451 64.2956H22.3501ZM22.4551 64.0096C22.4551 64.0096 22.5051 64.0096 22.5701 63.9996C22.6301 63.9946 22.6951 63.9845 22.7551 63.9695C22.8151 63.9544 22.8701 63.9344 22.9101 63.9093C22.9501 63.8842 22.9601 63.8491 22.9301 63.8039C22.9151 63.7788 22.8801 63.7638 22.8251 63.7638C22.6751 63.7939 22.5501 63.8742 22.4551 64.0096Z" fill="#1F1B28"/>
<path d="M34.24 63.819C34.31 63.834 34.345 63.8591 34.345 63.8892C34.345 63.9193 34.33 63.9494 34.305 63.9595C34.06 64.1652 33.765 64.3659 33.43 64.5566C33.095 64.7472 32.74 64.9178 32.36 65.0633C31.985 65.2088 31.6 65.3192 31.21 65.3945C30.82 65.4698 30.445 65.4949 30.09 65.4647C29.365 65.4246 28.705 65.1537 28.12 64.6619C27.845 64.9379 27.565 65.1787 27.28 65.3845C26.99 65.5902 26.7 65.7056 26.395 65.7357C26.16 65.7658 25.965 65.7206 25.8 65.6103C25.635 65.4999 25.52 65.3694 25.45 65.2189C25.38 65.0382 25.345 64.8677 25.345 64.7021V64.125C25.345 64.0548 25.33 64.0147 25.305 63.9996C25.28 63.9745 25.265 63.9344 25.275 63.8842C25.28 63.834 25.305 63.7939 25.345 63.7588C25.385 63.7236 25.43 63.6986 25.48 63.6785C25.53 63.6584 25.58 63.6684 25.635 63.7086C25.715 63.7788 25.765 63.8691 25.78 63.9846C25.795 64.1 25.805 64.2505 25.82 64.4261C25.82 64.6168 25.845 64.8024 25.9 64.973C25.955 65.1436 26.11 65.2289 26.37 65.2289C26.63 65.2139 26.89 65.1135 27.15 64.9178C27.41 64.7272 27.645 64.5214 27.85 64.3007C27.495 63.7537 27.39 63.0563 27.54 62.2184C27.58 62.0277 27.645 61.822 27.725 61.6112C27.805 61.4005 27.91 61.2048 28.035 61.0242C28.16 60.8435 28.305 60.688 28.475 60.5525C28.645 60.417 28.85 60.3267 29.08 60.2866C29.245 60.2615 29.385 60.2765 29.5 60.3368C29.615 60.397 29.71 60.4823 29.785 60.5926C29.86 60.703 29.91 60.8285 29.94 60.974C29.965 61.1195 29.965 61.265 29.94 61.4155C29.83 61.9926 29.63 62.5094 29.335 62.961C29.04 63.4125 28.73 63.8742 28.4 64.3408C28.605 64.4913 28.795 64.6168 28.975 64.7221C29.155 64.8275 29.34 64.9078 29.54 64.968C29.74 65.0282 29.955 65.0684 30.185 65.0834C30.42 65.0985 30.69 65.0884 31.005 65.0633C31.58 65.0081 32.12 64.8727 32.625 64.6619C33.13 64.4512 33.625 64.1903 34.105 63.8892L34.23 63.8089L34.24 63.819ZM28.14 63.9645C28.47 63.6082 28.775 63.1968 29.055 62.7402C29.335 62.2786 29.515 61.8019 29.6 61.3102C29.625 61.1747 29.62 61.0242 29.58 60.8686C29.54 60.7131 29.42 60.6328 29.23 60.6328C29.04 60.6328 28.87 60.698 28.725 60.8285C28.58 60.9589 28.455 61.0994 28.345 61.25C28.1 61.6062 27.945 62.0377 27.885 62.5495C27.825 63.0563 27.91 63.533 28.14 63.9695V63.9645Z" fill="#1F1B28"/>
<path d="M35.8401 64.2956C35.7051 64.3659 35.5651 64.4361 35.4301 64.5114C35.2951 64.5867 35.1701 64.6569 35.0601 64.7272C34.9501 64.7823 34.8151 64.8426 34.6501 64.9128C34.4851 64.983 34.3351 65.0031 34.2001 64.973C34.0751 64.9479 33.9801 64.8827 33.9151 64.7874C33.8451 64.692 33.8201 64.5867 33.8351 64.4763C33.8751 64.2706 34.0001 64.0598 34.2051 63.8491C34.4101 63.6383 34.6151 63.5079 34.8201 63.4677C34.8751 63.4527 34.9551 63.4477 35.0651 63.4477C35.1451 63.4477 35.2151 63.4778 35.2701 63.538C35.3251 63.5982 35.3451 63.6735 35.3301 63.7537C35.3301 63.824 35.3051 63.8691 35.2601 63.8992C35.2101 63.9294 35.1601 63.9344 35.1051 63.9193C35.0501 63.9043 34.9951 63.9043 34.9401 63.9193C34.7901 63.9745 34.6651 64.0548 34.5601 64.1652C34.4551 64.2756 34.3801 64.391 34.3251 64.5164C34.4351 64.5164 34.5601 64.4913 34.6951 64.4361C34.8301 64.3809 34.9501 64.3257 35.0451 64.2706C35.1551 64.2154 35.2601 64.1602 35.3651 64.105C35.4701 64.0498 35.5751 63.9896 35.6851 63.9193C35.7251 63.8942 35.7651 63.8691 35.8001 63.8591C35.8351 63.8441 35.8701 63.834 35.9151 63.819C36.0101 63.7788 36.1001 63.7788 36.1801 63.819C36.2601 63.8591 36.2951 63.9344 36.2851 64.0448C36.2701 64.1401 36.2651 64.2254 36.2651 64.3007V64.5164C36.2651 64.682 36.3251 64.7823 36.4501 64.8275C36.6001 64.8978 36.7801 64.8978 36.9951 64.8275C37.2051 64.7573 37.3551 64.7021 37.4351 64.6619C37.6251 64.5816 37.8151 64.4913 38.0001 64.396C38.1851 64.3007 38.3751 64.2053 38.5651 64.105C38.6201 64.0799 38.6801 64.0448 38.7501 64.0147C38.8201 63.9795 38.8851 63.9494 38.9551 63.9243C39.0251 63.8842 39.1001 63.8491 39.1801 63.819C39.2601 63.8491 39.3051 63.8842 39.3051 63.9344C39.3051 63.9845 39.2701 64.0197 39.2001 64.0498C38.6401 64.406 38.0301 64.7372 37.3701 65.0382C37.2601 65.0934 37.1101 65.1486 36.9201 65.2038C36.7301 65.259 36.5251 65.244 36.3051 65.1637C36.1001 65.0834 35.9701 64.963 35.9151 64.8024C35.8601 64.6469 35.8401 64.4763 35.8551 64.2956H35.8401Z" fill="#1F1B28"/>
<path d="M40.915 57.4918C40.64 57.4215 40.365 57.3713 40.085 57.3362C39.805 57.3011 39.525 57.271 39.255 57.2409C38.5 57.1606 37.8 57.1706 37.15 57.281C36.5 57.3914 35.9 57.6874 35.355 58.1691C35.285 58.2394 35.21 58.3146 35.13 58.3949C35.05 58.4752 34.995 58.5605 34.965 58.6408C34.94 58.7361 34.955 58.8014 35.015 58.8365C35.075 58.8716 35.085 58.9168 35.045 58.972C35.02 59.0021 34.985 59.0121 34.94 59.0121H34.835C34.71 58.9569 34.65 58.8315 34.65 58.6408C34.665 58.405 34.815 58.144 35.1 57.858C35.595 57.4165 36.135 57.1104 36.735 56.9298C37.33 56.7492 37.935 56.6889 38.55 56.7441C38.975 56.7742 39.395 56.8194 39.815 56.8896C40.23 56.9599 40.645 57.0151 41.055 57.0552C41.235 56.6137 41.41 56.1771 41.59 55.7456C41.77 55.3141 41.965 54.8826 42.185 54.4561C42.255 54.3307 42.325 54.2002 42.4 54.0647C42.475 53.9293 42.565 53.8038 42.675 53.6934C42.77 53.6132 42.835 53.573 42.87 53.578C42.905 53.583 42.935 53.6031 42.96 53.6282C43.055 53.6984 43.085 53.7787 43.04 53.8741C43 53.9694 42.965 54.0547 42.935 54.1199C42.81 54.3808 42.69 54.6367 42.565 54.8926C42.44 55.1485 42.32 55.4095 42.195 55.6854C42.085 55.9313 41.985 56.1822 41.895 56.428C41.805 56.6739 41.715 56.9147 41.62 57.1506C42.565 57.261 43.48 57.3362 44.37 57.3764C45.26 57.4165 46.155 57.3964 47.06 57.3161C47.47 57.276 47.86 57.2359 48.23 57.2007C48.6 57.1656 48.975 57.1154 49.36 57.0452C49.44 57.0301 49.53 57.0151 49.625 56.995C49.72 56.9749 49.78 56.995 49.81 57.0653C49.825 57.1455 49.78 57.2108 49.675 57.261C49.57 57.3111 49.48 57.3412 49.4 57.3513C48.745 57.4867 48.08 57.6072 47.42 57.7025C46.755 57.7978 46.095 57.848 45.44 57.848C44.825 57.8631 44.165 57.838 43.46 57.7778C42.755 57.7176 42.085 57.6423 41.46 57.562C41.16 58.4401 40.87 59.3232 40.6 60.2113C40.325 61.0994 40.085 61.9926 39.88 62.9007C39.745 63.4928 39.635 64.0849 39.55 64.672C39.47 65.264 39.44 65.8461 39.47 66.4231C39.55 67.236 39.73 67.8782 40.005 68.3499C40.28 68.8215 40.635 69.1728 41.075 69.3885C41.515 69.6093 42.025 69.7247 42.605 69.7397C43.185 69.7548 43.825 69.6996 44.525 69.5742C45.28 69.4487 46.06 69.243 46.875 68.947C47.69 68.6509 48.51 68.3047 49.34 67.9083C50.17 67.5119 50.985 67.0804 51.785 66.6188C52.585 66.1572 53.34 65.7006 54.055 65.249C54.135 65.1938 54.3 65.0884 54.55 64.9279C54.795 64.7723 55.055 64.6067 55.33 64.4411C55.645 64.2505 55.985 64.0347 56.355 63.8039C56.435 63.819 56.475 63.8441 56.47 63.8842C56.465 63.9243 56.445 63.9544 56.42 63.9645C55.68 64.4713 54.945 64.973 54.21 65.4597C53.48 65.9464 52.73 66.4231 51.96 66.8897C51.15 67.3865 50.325 67.8531 49.485 68.2997C48.645 68.7463 47.79 69.1276 46.93 69.4437C46.065 69.7598 45.2 69.9856 44.32 70.1261C43.445 70.2616 42.565 70.2616 41.69 70.1261C40.925 69.9756 40.325 69.6394 39.905 69.1276C39.48 68.6108 39.2 68.0137 39.065 67.3263C38.985 66.7894 38.95 66.2525 38.96 65.7206C38.975 65.1838 39.02 64.6569 39.095 64.1351C39.17 63.6132 39.27 63.0964 39.395 62.5897C39.52 62.0829 39.64 61.5811 39.765 61.0844C39.915 60.4672 40.09 59.8601 40.29 59.273C40.49 58.6809 40.695 58.0838 40.915 57.4817V57.4918Z" fill="#1F1B28"/>
<path d="M56.585 64.2956C56.61 64.5014 56.725 64.6168 56.925 64.6368C57.125 64.6569 57.34 64.6368 57.58 64.5867C57.82 64.5315 58.045 64.4612 58.26 64.3709C58.47 64.2806 58.61 64.2254 58.68 64.1953C58.75 64.1702 58.83 64.1351 58.925 64.0899C59.02 64.0498 59.115 64.0096 59.21 63.9645C59.32 63.9093 59.43 63.8591 59.54 63.819C59.62 63.834 59.67 63.8691 59.685 63.9243C59.7 63.9795 59.67 64.0197 59.605 64.0498C59.51 64.105 59.415 64.1551 59.32 64.2053C59.225 64.2555 59.12 64.3057 59.01 64.3609C58.845 64.4411 58.675 64.5315 58.495 64.6268C58.315 64.7221 58.13 64.8074 57.93 64.8827C57.73 64.958 57.535 65.0131 57.345 65.0483C57.155 65.0834 56.97 65.0784 56.79 65.0382C56.6 64.9981 56.44 64.9028 56.32 64.7623C56.195 64.6168 56.155 64.4361 56.195 64.2154C56.275 63.8742 56.46 63.6333 56.75 63.4928C56.94 63.4125 57.1 63.3925 57.22 63.4426C57.345 63.4928 57.425 63.5681 57.465 63.6785C57.49 63.7487 57.49 63.844 57.465 63.9645C57.435 64.0899 57.33 64.1852 57.135 64.2555C57.055 64.2856 56.97 64.3057 56.89 64.3157C56.81 64.3308 56.705 64.3207 56.58 64.2956H56.585ZM56.69 64.0096C56.69 64.0096 56.74 64.0096 56.805 63.9996C56.865 63.9946 56.93 63.9845 56.99 63.9695C57.05 63.9544 57.105 63.9344 57.145 63.9093C57.185 63.8842 57.195 63.8491 57.165 63.8039C57.15 63.7788 57.115 63.7638 57.06 63.7638C56.91 63.7939 56.785 63.8742 56.69 64.0096Z" fill="#1F1B28"/>
<path d="M71.105 64.5014C71.35 64.4211 71.65 64.3408 72.01 64.2655C72.365 64.1903 72.71 64.12 73.035 64.0498C73.42 63.9795 73.81 63.9043 74.205 63.824C74.315 63.8541 74.375 63.8942 74.38 63.9595C74.385 64.0197 74.355 64.0648 74.285 64.0949C73.725 64.2455 73.17 64.401 72.62 64.5565C72.07 64.7171 71.51 64.8977 70.935 65.1035C70.69 65.7608 70.375 66.4532 69.99 67.1757C69.605 67.8983 69.16 68.5606 68.645 69.1627C68.13 69.7698 67.545 70.2666 66.89 70.658C66.235 71.0493 65.505 71.245 64.715 71.245C63.77 71.2049 63.34 70.7433 63.42 69.8652C63.475 69.5641 63.575 69.2731 63.73 68.9871C63.88 68.7061 64.06 68.4402 64.265 68.1943C64.47 67.9485 64.69 67.7176 64.92 67.5019C65.155 67.2911 65.385 67.1005 65.62 66.9349C66.375 66.3428 67.175 65.8712 68.025 65.5149C68.875 65.1587 69.67 64.8676 70.405 64.6469C70.475 64.401 70.56 64.0999 70.67 63.7387C70.78 63.3824 70.87 63.0814 70.935 62.8305C71.1 62.128 71.255 61.4105 71.395 60.6779C71.54 59.9454 71.625 59.2379 71.65 58.5655C71.09 59.0623 70.515 59.6142 69.935 60.2263C69.355 60.8385 68.765 61.4356 68.17 62.0176C67.575 62.5997 66.965 63.1366 66.34 63.6233C65.715 64.11 65.075 64.4713 64.42 64.7071C64.09 64.8175 63.79 64.8375 63.515 64.7673C63.24 64.697 63.02 64.5214 62.86 64.2304C62.735 64.0247 62.66 63.7788 62.625 63.4978C62.59 63.2168 62.59 62.9308 62.625 62.6448C62.66 62.3588 62.715 62.0678 62.79 61.7818C62.865 61.4958 62.945 61.2349 63.025 60.9991C63.23 60.4521 63.475 59.9052 63.755 59.3583C64.035 58.8164 64.335 58.2996 64.65 57.8129C64.965 57.3262 65.285 56.8696 65.605 56.4431C65.925 56.0166 66.23 55.6403 66.52 55.3091C66.59 55.2539 66.655 55.2037 66.715 55.1535C66.775 55.1034 66.85 55.0933 66.93 55.1234C67 55.1786 67.02 55.2439 66.99 55.3191C66.96 55.3944 66.93 55.4596 66.885 55.5148C66.57 55.9413 66.28 56.3377 66.025 56.709C65.765 57.0803 65.52 57.4466 65.295 57.8028C65.07 58.1591 64.855 58.5153 64.66 58.8766C64.46 59.2329 64.265 59.6192 64.075 60.0307C63.815 60.6077 63.605 61.1646 63.45 61.7015C63.29 62.2384 63.24 62.7803 63.295 63.3272C63.335 63.5631 63.41 63.7688 63.51 63.9444C63.615 64.125 63.765 64.2103 63.97 64.2103C64.285 64.2103 64.665 64.0799 65.11 63.819C65.555 63.558 66.01 63.2419 66.475 62.8706C66.94 62.4993 67.39 62.113 67.83 61.7065C68.27 61.3001 68.63 60.9539 68.92 60.6679C69.415 60.1862 69.865 59.7447 70.275 59.3382C70.685 58.9318 71.09 58.5304 71.485 58.134C71.65 58.0236 71.795 57.9785 71.925 57.9985C72.055 58.0186 72.145 58.1039 72.2 58.2544C72.24 58.3899 72.26 58.6107 72.25 58.9017C72.245 59.1977 72.21 59.5389 72.16 59.9303C72.105 60.3217 72.035 60.7331 71.945 61.1646C71.855 61.5962 71.765 62.0227 71.67 62.4441C71.575 62.8656 71.475 63.252 71.37 63.6082C71.265 63.9645 71.175 64.2605 71.095 64.4963L71.105 64.5014ZM70.12 65.2841C69.42 65.5199 68.8 65.7457 68.25 65.9765C67.7 66.2023 67.125 66.5034 66.525 66.8747C66.28 67.0252 66.01 67.2159 65.725 67.4417C65.44 67.6675 65.165 67.9133 64.905 68.1742C64.645 68.4352 64.42 68.7061 64.235 68.9871C64.05 69.2681 63.93 69.534 63.875 69.7799C63.805 70.1361 63.86 70.4021 64.04 70.5727C64.22 70.7433 64.505 70.8035 64.9 70.7483C65.64 70.6228 66.28 70.377 66.82 70.0057C67.36 69.6344 67.83 69.1928 68.225 68.686C68.62 68.1793 68.97 67.6273 69.275 67.0352C69.575 66.4432 69.855 65.8611 70.115 65.2841H70.12Z" fill="#1F1B28"/>
<path d="M80.12 63.819C80.19 63.834 80.22 63.8591 80.21 63.8892C80.205 63.9243 80.185 63.9494 80.16 63.9595C79.955 64.11 79.655 64.2705 79.255 64.4311C78.86 64.5967 78.455 64.7171 78.045 64.8024C77.69 64.8727 77.315 64.9078 76.925 64.9078C76.535 64.9078 76.16 64.8526 75.805 64.7422C75.615 64.963 75.43 65.1536 75.25 65.3192C75.1 65.4697 74.93 65.6052 74.735 65.7206C74.545 65.836 74.37 65.8962 74.22 65.8962C74.15 65.8962 74.085 65.8762 74.015 65.836C73.945 65.7959 73.885 65.7307 73.83 65.6504C73.775 65.5701 73.74 65.4547 73.725 65.3092C73.71 65.1637 73.715 65.0232 73.735 64.8777C73.755 64.7322 73.785 64.5967 73.815 64.4662C73.85 64.3358 73.885 64.2304 73.93 64.1451C73.96 64.0899 74 64.0397 74.055 63.9896C74.11 63.9394 74.17 63.9394 74.24 63.9795C74.31 64.0347 74.34 64.0899 74.33 64.1451C74.325 64.2003 74.305 64.2605 74.28 64.3308C74.265 64.386 74.24 64.4712 74.21 64.5867C74.175 64.7021 74.15 64.8275 74.13 64.958C74.11 65.0884 74.105 65.2088 74.11 65.3192C74.115 65.4296 74.155 65.4999 74.225 65.5249C74.295 65.54 74.37 65.5199 74.45 65.4647C74.53 65.4095 74.6 65.3694 74.655 65.3393C74.79 65.244 74.93 65.1235 75.075 64.978C75.22 64.8325 75.32 64.7121 75.375 64.6168C75.005 64.4913 74.695 64.3157 74.45 64.0899C74.205 63.8641 74.055 63.5781 74 63.2369C73.975 63.0563 73.965 62.8606 73.98 62.6398C73.995 62.419 74.04 62.2083 74.125 62.0026C74.21 61.7969 74.325 61.6212 74.485 61.4757C74.64 61.3302 74.85 61.2399 75.11 61.1998C75.395 61.1596 75.64 61.1897 75.84 61.2951C76.04 61.4005 76.195 61.541 76.31 61.7266C76.425 61.9123 76.505 62.118 76.545 62.3438C76.585 62.5696 76.595 62.7803 76.565 62.971C76.525 63.2871 76.46 63.553 76.37 63.7738C76.28 63.9946 76.17 64.2053 76.03 64.411C76.22 64.4512 76.45 64.4913 76.72 64.5264C76.985 64.5616 77.265 64.5666 77.55 64.5365C78 64.4963 78.44 64.411 78.865 64.2906C79.29 64.1652 79.705 64.0096 80.12 63.819ZM75.705 64.2304C76.075 63.7086 76.26 63.2118 76.26 62.7452C76.26 62.6097 76.24 62.4592 76.2 62.2936C76.16 62.128 76.095 61.9825 76.005 61.8621C75.915 61.7367 75.805 61.6413 75.665 61.5761C75.53 61.5058 75.365 61.4858 75.17 61.5159C74.98 61.546 74.825 61.6212 74.71 61.7417C74.595 61.8671 74.5 62.0126 74.435 62.1832C74.365 62.3538 74.325 62.5344 74.31 62.7201C74.295 62.9058 74.31 63.0663 74.35 63.2068C74.42 63.5229 74.56 63.7638 74.77 63.9293C74.98 64.0949 75.23 64.2153 75.52 64.3006C75.59 64.3308 75.63 64.3408 75.645 64.3308C75.66 64.3257 75.68 64.2906 75.705 64.2354V64.2304Z" fill="#1F1B28"/>
<path d="M87.105 63.819C87.215 63.834 87.275 63.8691 87.29 63.9344C87.305 63.9946 87.255 64.0598 87.145 64.1301C87.105 64.1451 87.03 64.1802 86.93 64.2354C86.825 64.2906 86.705 64.3609 86.56 64.4411C86.415 64.5214 86.26 64.6118 86.09 64.7071C85.92 64.8024 85.75 64.8927 85.585 64.973C85.435 65.0533 85.255 65.1386 85.05 65.2189C84.845 65.2992 84.63 65.3694 84.405 65.4246C84.18 65.4798 83.945 65.5099 83.705 65.5149C83.465 65.5199 83.23 65.4898 82.995 65.4246C82.71 65.3443 82.525 65.1988 82.44 64.9931C82.355 64.7874 82.325 64.6268 82.335 64.5214C82.145 64.6469 81.965 64.7623 81.8 64.8727C81.635 64.9831 81.465 65.0934 81.285 65.2038C81.175 65.2741 81.045 65.3443 80.895 65.4196C80.745 65.4949 80.6 65.535 80.465 65.535C80.34 65.535 80.24 65.5049 80.165 65.4447C80.09 65.3845 80.03 65.3142 79.99 65.239C79.95 65.1637 79.92 65.0884 79.91 65.0132C79.895 64.9379 79.89 64.8877 79.89 64.8576C79.875 64.6368 79.92 64.386 80.015 64.105C80.11 63.824 80.235 63.6132 80.385 63.4778C80.455 63.4226 80.51 63.4176 80.56 63.4577C80.61 63.4978 80.64 63.553 80.655 63.6233C80.655 63.6785 80.64 63.7588 80.615 63.8691C80.585 63.9394 80.555 64.0397 80.51 64.1802C80.47 64.3157 80.44 64.401 80.43 64.4261C80.305 64.8777 80.325 65.1286 80.49 65.1687C80.545 65.1687 80.62 65.1537 80.715 65.1185C80.81 65.0834 80.91 65.0382 81.015 64.9831C81.12 64.9279 81.215 64.8727 81.315 64.8175C81.41 64.7623 81.485 64.7221 81.54 64.692C81.69 64.6117 81.835 64.5214 81.97 64.4361C82.105 64.3458 82.25 64.2706 82.4 64.2003C82.55 64.1602 82.64 64.2204 82.665 64.386V64.5716C82.665 64.8476 82.8 65.0232 83.075 65.1085C83.24 65.1486 83.425 65.1587 83.63 65.1386C83.835 65.1185 84.04 65.0834 84.245 65.0332C84.45 64.9831 84.65 64.9279 84.84 64.8576C85.03 64.7874 85.19 64.7221 85.31 64.6519C85.475 64.5816 85.655 64.4963 85.855 64.396C86.055 64.2906 86.25 64.2003 86.44 64.12C86.66 64.0247 86.88 63.9294 87.095 63.834L87.105 63.819Z" fill="#1F1B28"/>
<path d="M87.7 63.6133C87.865 63.7638 87.995 63.9344 88.09 64.1301C88.185 64.3207 88.195 64.5265 88.11 64.7472C88.015 64.9831 87.92 65.1888 87.82 65.3744C87.725 65.5601 87.675 65.7708 87.675 66.0016C87.675 66.1271 87.735 66.1873 87.86 66.1873C88.05 66.1873 88.245 66.1421 88.435 66.0518C88.625 65.9615 88.81 65.8712 88.99 65.7758C89.28 65.6103 89.545 65.4497 89.79 65.2891C90.035 65.1336 90.27 64.978 90.49 64.8275C90.71 64.677 90.925 64.5164 91.135 64.3559C91.345 64.1903 91.575 64.0147 91.825 63.819C91.935 63.834 91.985 63.8641 91.98 63.9143C91.975 63.9645 91.94 64.0046 91.885 64.0498C91.57 64.2957 91.27 64.5415 90.98 64.7824C90.695 65.0232 90.4 65.249 90.105 65.4648C89.81 65.6755 89.51 65.8762 89.2 66.0518C88.89 66.2324 88.56 66.383 88.205 66.5034C87.905 66.6138 87.68 66.6188 87.525 66.5235C87.375 66.4281 87.285 66.2575 87.26 66.0067C87.275 65.7708 87.31 65.5501 87.365 65.3343C87.42 65.1236 87.49 64.9178 87.57 64.7272C87.65 64.5616 87.63 64.4111 87.51 64.2756C87.43 64.1802 87.35 64.0949 87.275 64.0197C87.2 63.9444 87.135 63.8641 87.08 63.7839C86.97 63.6032 86.96 63.4075 87.05 63.1868C87.14 62.966 87.295 62.8305 87.51 62.7753C87.62 62.7502 87.71 62.7653 87.785 62.8255C87.86 62.8857 87.905 62.971 87.92 63.0814C87.935 63.1767 87.92 63.2721 87.87 63.3674C87.82 63.4627 87.765 63.548 87.695 63.6133H87.7ZM87.575 63.5079C87.615 63.4677 87.645 63.4075 87.665 63.3323C87.685 63.257 87.695 63.1918 87.695 63.1366C87.695 63.0814 87.68 63.0463 87.655 63.0312C87.625 63.0162 87.585 63.0362 87.53 63.0914C87.42 63.242 87.435 63.3774 87.57 63.5029L87.575 63.5079Z" fill="#1F1B28"/>
<path d="M99.095 61.1797C98.915 61.0693 98.735 60.969 98.55 60.8787C98.365 60.7883 98.185 60.688 98.005 60.5776C97.61 60.3016 97.295 59.9956 97.07 59.6493C96.845 59.3081 96.805 58.9168 96.955 58.4752C97.08 58.134 97.285 57.8029 97.57 57.4867C97.855 57.1706 98.185 56.8846 98.545 56.6338C98.91 56.3779 99.285 56.1621 99.675 55.9865C100.065 55.8058 100.425 55.6704 100.755 55.575C100.945 55.5198 101.15 55.4797 101.36 55.4496C101.57 55.4245 101.775 55.4145 101.975 55.4295C102.175 55.4446 102.36 55.4797 102.54 55.5449C102.72 55.6051 102.87 55.7055 102.99 55.846C103.14 55.9965 103.225 56.1772 103.235 56.3829C103.25 56.5886 103.2 56.7893 103.09 56.98C103.035 57.0753 102.965 57.1154 102.885 57.1054C102.855 57.0904 102.83 57.0803 102.805 57.0653C102.775 57.0502 102.765 57.0101 102.765 56.9398C102.765 56.8595 102.765 56.7642 102.775 56.6639C102.78 56.5585 102.785 56.4632 102.785 56.3628C102.785 56.142 102.705 55.9915 102.54 55.9112C102.375 55.8309 102.19 55.7808 101.985 55.7657C101.645 55.7507 101.23 55.8309 100.745 56.0015C100.26 56.1721 99.785 56.3979 99.32 56.6839C98.855 56.9649 98.445 57.286 98.09 57.6423C97.735 57.9985 97.53 58.3498 97.475 58.691C97.445 58.8566 97.46 59.0121 97.505 59.1526C97.555 59.2981 97.625 59.4286 97.72 59.544C97.815 59.6594 97.925 59.7647 98.05 59.8551C98.175 59.9454 98.295 60.0257 98.42 60.0909C98.61 60.2013 98.795 60.3016 98.975 60.3919C99.155 60.4823 99.34 60.5826 99.53 60.693C99.625 60.7482 99.705 60.7934 99.765 60.8285C99.825 60.8636 99.88 60.8987 99.92 60.9439C100.03 61.0392 100.07 61.1446 100.045 61.255C100.015 61.3654 99.94 61.4456 99.82 61.5008C99.75 61.5309 99.685 61.551 99.615 61.5711C99.545 61.5912 99.48 61.6162 99.41 61.6413C98.505 61.9173 97.69 62.3037 96.955 62.8054C96.22 63.3072 95.57 63.9494 94.995 64.7322C94.68 65.1737 94.425 65.6454 94.235 66.1522C94.045 66.6589 94.01 67.1808 94.13 67.7177C94.265 68.375 94.655 68.8566 95.3 69.1627C96 69.4236 96.705 69.534 97.415 69.4939C98.125 69.4537 98.81 69.3283 99.47 69.1226C100.62 68.7362 101.665 68.2345 102.61 67.6073C103.555 66.9801 104.48 66.3127 105.38 65.6002C105.72 65.3243 106.025 65.0784 106.285 64.8576C106.545 64.6368 106.77 64.4512 106.965 64.3007C107.185 64.12 107.37 63.9645 107.52 63.829C107.755 63.8842 107.785 63.9946 107.625 64.1602C107.445 64.3258 107.27 64.4913 107.1 64.6569C106.93 64.8225 106.735 64.9981 106.525 65.1938C106.315 65.3845 106.065 65.6153 105.775 65.8762C105.49 66.1371 105.14 66.4382 104.73 66.7844C103.81 67.527 102.86 68.1943 101.875 68.7814C100.89 69.3735 99.86 69.7899 98.795 70.0408C98.165 70.1662 97.54 70.2315 96.915 70.2465C96.29 70.2616 95.705 70.1412 95.16 69.8953C94.765 69.7147 94.43 69.4889 94.155 69.2029C93.88 68.9219 93.685 68.5606 93.56 68.1191C93.41 67.5019 93.415 66.9098 93.58 66.3478C93.745 65.7859 93.985 65.254 94.3 64.7623C94.64 64.2555 95.025 63.7939 95.45 63.3824C95.875 62.971 96.34 62.5997 96.845 62.2685C97.2 62.0327 97.565 61.837 97.945 61.6714C98.32 61.5059 98.71 61.3503 99.105 61.1998L99.095 61.1797Z" fill="#1F1B28"/>
<path d="M108.11 63.8842C108.04 64.1853 108.015 64.5214 108.04 64.8827C108.06 65.249 108.12 65.5852 108.225 65.8912C108.33 66.2023 108.485 66.4633 108.695 66.674C108.905 66.8847 109.18 67.0001 109.505 67.0152C110.025 67.0453 110.525 66.95 111.005 66.7392C111.485 66.5285 111.93 66.2977 112.34 66.0468C112.955 65.6905 113.52 65.3243 114.035 64.9529C114.55 64.5816 115.06 64.2053 115.565 63.819C115.66 63.8491 115.7 63.8792 115.68 63.9143C115.66 63.9494 115.63 63.9795 115.585 64.0046C115.16 64.401 114.71 64.7623 114.24 65.0884C113.77 65.4096 113.305 65.7307 112.855 66.0468C112.565 66.2525 112.22 66.4733 111.805 66.7041C111.395 66.9399 110.975 67.1206 110.54 67.251C110.11 67.3815 109.68 67.4367 109.255 67.4166C108.83 67.3965 108.46 67.236 108.145 66.9299C107.955 66.7392 107.81 66.5134 107.715 66.2475C107.62 65.9866 107.55 65.7206 107.51 65.4447C107.44 64.963 107.44 64.4462 107.5 63.8892C107.56 63.3323 107.665 62.7753 107.81 62.2184C107.955 61.6614 108.12 61.1145 108.315 60.5776C108.505 60.0407 108.705 59.549 108.91 59.0924C109.115 58.6809 109.36 58.2193 109.64 57.7125C109.92 57.2058 110.235 56.714 110.585 56.2374C110.935 55.7657 111.315 55.3442 111.725 54.9779C112.135 54.6117 112.565 54.3708 113.02 54.2454C113.265 54.1751 113.505 54.1852 113.74 54.2654C113.975 54.3457 114.15 54.4912 114.275 54.697C114.425 54.9729 114.5 55.289 114.5 55.6553C114.5 56.0216 114.455 56.3929 114.365 56.7793C114.275 57.1656 114.15 57.5419 113.985 57.9132C113.82 58.2845 113.655 58.6157 113.49 58.9017C112.79 60.0859 111.97 61.0944 111.025 61.9424C110.08 62.7853 109.11 63.4276 108.11 63.8691V63.8842ZM108.13 63.5982C108.32 63.5279 108.595 63.3925 108.95 63.1868C109.305 62.981 109.71 62.695 110.16 62.3338C110.61 61.9675 111.09 61.5109 111.6 60.9639C112.105 60.417 112.605 59.7547 113.1 58.987C113.25 58.7411 113.41 58.4401 113.57 58.0889C113.735 57.7376 113.87 57.3764 113.98 57.0051C114.09 56.6338 114.155 56.2775 114.175 55.9313C114.195 55.5901 114.145 55.2991 114.02 55.0683C113.84 54.7371 113.575 54.6066 113.22 54.6769C112.905 54.7722 112.6 54.9378 112.305 55.1736C112.01 55.4095 111.74 55.6704 111.495 55.9564C111.25 56.2474 111.025 56.5485 110.815 56.8646C110.61 57.1807 110.43 57.4617 110.28 57.7075C109.72 58.7261 109.265 59.6945 108.915 60.6228C108.565 61.551 108.3 62.5445 108.125 63.6032L108.13 63.5982Z" fill="#1F1B28"/>
<path d="M115.795 64.2956C115.82 64.5014 115.935 64.6168 116.135 64.6368C116.335 64.6569 116.55 64.6368 116.79 64.5867C117.03 64.5315 117.255 64.4612 117.47 64.3709C117.68 64.2806 117.82 64.2254 117.89 64.1953C117.96 64.1702 118.04 64.1351 118.135 64.0899C118.23 64.0498 118.325 64.0096 118.42 63.9645C118.53 63.9093 118.64 63.8591 118.75 63.819C118.83 63.834 118.88 63.8691 118.895 63.9243C118.91 63.9795 118.88 64.0197 118.815 64.0498C118.72 64.105 118.625 64.1551 118.53 64.2053C118.435 64.2555 118.33 64.3057 118.22 64.3609C118.055 64.4411 117.885 64.5315 117.705 64.6268C117.525 64.7221 117.34 64.8074 117.14 64.8827C116.94 64.958 116.745 65.0131 116.555 65.0483C116.365 65.0834 116.18 65.0784 116 65.0382C115.81 64.9981 115.65 64.9028 115.53 64.7623C115.405 64.6168 115.365 64.4361 115.405 64.2154C115.485 63.8742 115.67 63.6333 115.96 63.4928C116.15 63.4125 116.31 63.3925 116.43 63.4426C116.555 63.4928 116.635 63.5681 116.675 63.6785C116.7 63.7487 116.7 63.844 116.675 63.9645C116.645 64.0899 116.54 64.1852 116.345 64.2555C116.265 64.2856 116.18 64.3057 116.1 64.3157C116.02 64.3308 115.915 64.3207 115.79 64.2956H115.795ZM115.9 64.0096C115.9 64.0096 115.95 64.0096 116.015 63.9996C116.075 63.9946 116.14 63.9845 116.2 63.9695C116.26 63.9544 116.315 63.9344 116.355 63.9093C116.395 63.8842 116.405 63.8491 116.375 63.8039C116.36 63.7788 116.325 63.7638 116.27 63.7638C116.12 63.7939 115.995 63.8742 115.9 64.0096Z" fill="#1F1B28"/>
<path d="M119.59 64.8928C119.48 64.9881 119.365 65.0734 119.24 65.1486C119.115 65.2239 119 65.2741 118.89 65.3042C118.645 65.3443 118.48 65.2691 118.395 65.0784C118.3 64.8877 118.29 64.677 118.375 64.4512C118.455 64.2254 118.585 64.0097 118.755 63.814C118.925 63.6133 119.125 63.4527 119.35 63.3273C119.575 63.2018 119.79 63.1416 119.995 63.1416C120.13 63.1567 120.235 63.1868 120.305 63.2369C120.375 63.2871 120.45 63.3523 120.53 63.4326C120.545 63.4326 120.55 63.4326 120.55 63.4226C120.55 63.4176 120.555 63.4126 120.57 63.4126C120.75 63.3423 120.85 63.3975 120.88 63.5781C120.88 63.6735 120.88 63.7688 120.87 63.8541C120.865 63.9444 120.855 64.0297 120.84 64.11C120.76 64.6168 120.66 65.1386 120.54 65.6755C120.425 66.2124 120.325 66.6589 120.24 67.0152C120.375 66.9751 120.605 66.8597 120.92 66.674C121.235 66.4884 121.565 66.2776 121.915 66.0468C122.265 65.811 122.6 65.5852 122.92 65.3544C123.24 65.1286 123.485 64.9479 123.65 64.8075C123.76 64.7372 123.885 64.6469 124.03 64.5315C124.175 64.4161 124.315 64.3007 124.45 64.1903C124.6 64.0648 124.765 63.9444 124.945 63.819C125.055 63.8491 125.09 63.8892 125.06 63.9444C125.025 63.9996 125 64.0398 124.99 64.0699C124.935 64.11 124.885 64.1501 124.845 64.1953C124.805 64.2354 124.765 64.2756 124.72 64.3207C123.98 64.978 123.235 65.5551 122.48 66.0518C122.11 66.3127 121.735 66.5586 121.36 66.7944C120.985 67.0302 120.605 67.256 120.22 67.4768C120.125 67.517 120.07 67.5872 120.055 67.6825C119.96 68.0137 119.86 68.3499 119.755 68.6911C119.65 69.0323 119.53 69.3634 119.395 69.6795C119.08 70.382 118.675 71.0142 118.175 71.5862C117.675 72.1582 117.07 72.5245 116.355 72.6901C116.165 72.7303 115.975 72.7353 115.79 72.7002C115.605 72.665 115.44 72.6048 115.295 72.5145C115.15 72.4242 115.035 72.3038 114.945 72.1432C114.855 71.9826 114.81 71.802 114.81 71.5963C114.81 71.2802 114.89 70.9791 115.045 70.6981C115.205 70.4171 115.4 70.1562 115.64 69.9254C115.88 69.6896 116.14 69.4788 116.42 69.2882C116.7 69.0975 116.965 68.9219 117.21 68.7714C117.605 68.5355 117.995 68.3148 118.37 68.099C118.745 67.8883 119.135 67.6625 119.53 67.4266C119.625 67.3715 119.695 67.2962 119.735 67.2008C119.86 66.6389 119.985 66.0869 120.115 65.5501C120.245 65.0132 120.365 64.4863 120.475 63.9645C120.34 64.115 120.19 64.2706 120.035 64.4261C119.88 64.5817 119.725 64.7372 119.575 64.8877L119.59 64.8928ZM119.53 67.8582C119.45 67.8883 119.37 67.9234 119.295 67.9736C119.22 68.0237 119.15 68.0589 119.08 68.089C118.78 68.2545 118.48 68.4201 118.185 68.5857C117.89 68.7513 117.6 68.9169 117.31 69.0825C117.09 69.2079 116.85 69.3634 116.59 69.5541C116.33 69.7448 116.085 69.9555 115.86 70.1813C115.635 70.4071 115.45 70.6479 115.305 70.9038C115.16 71.1597 115.095 71.4207 115.11 71.6966C115.14 72.0127 115.28 72.2185 115.53 72.3138C115.785 72.4091 116.025 72.4292 116.26 72.374C116.6 72.2937 116.915 72.1532 117.195 71.9626C117.475 71.7719 117.73 71.5461 117.955 71.2902C118.18 71.0343 118.38 70.7583 118.55 70.4573C118.72 70.1562 118.87 69.8552 118.99 69.5491C119.1 69.2731 119.2 68.9871 119.3 68.6961C119.395 68.4001 119.47 68.1241 119.525 67.8632L119.53 67.8582ZM120.25 63.7588C120.17 63.553 120.005 63.4828 119.755 63.553C119.66 63.5832 119.575 63.6133 119.51 63.6584C119.32 63.7688 119.155 63.9043 119.025 64.0598C118.895 64.2204 118.795 64.401 118.725 64.6067C118.7 64.677 118.685 64.7523 118.685 64.8426C118.685 64.9329 118.745 64.968 118.87 64.958C119.02 64.9329 119.22 64.8024 119.465 64.5766C119.71 64.3508 119.97 64.0799 120.245 63.7638L120.25 63.7588Z" fill="#1F1B28"/>
<path d="M126.555 64.2956C126.42 64.3659 126.28 64.4361 126.145 64.5114C126.01 64.5867 125.885 64.6569 125.775 64.7272C125.665 64.7823 125.53 64.8426 125.365 64.9128C125.2 64.983 125.05 65.0031 124.915 64.973C124.79 64.9479 124.695 64.8827 124.63 64.7874C124.56 64.692 124.535 64.5867 124.55 64.4763C124.59 64.2706 124.715 64.0598 124.92 63.8491C125.125 63.6383 125.33 63.5079 125.535 63.4677C125.59 63.4527 125.67 63.4477 125.78 63.4477C125.86 63.4477 125.93 63.4778 125.985 63.538C126.04 63.5982 126.06 63.6735 126.045 63.7537C126.045 63.824 126.02 63.8691 125.975 63.8992C125.925 63.9294 125.875 63.9344 125.82 63.9193C125.765 63.9043 125.71 63.9043 125.655 63.9193C125.505 63.9745 125.38 64.0548 125.275 64.1652C125.17 64.2756 125.095 64.391 125.04 64.5164C125.15 64.5164 125.275 64.4913 125.41 64.4361C125.545 64.3809 125.665 64.3257 125.76 64.2706C125.87 64.2154 125.975 64.1602 126.08 64.105C126.185 64.0498 126.29 63.9896 126.4 63.9193C126.44 63.8942 126.48 63.8691 126.515 63.8591C126.55 63.8441 126.585 63.834 126.63 63.819C126.725 63.7788 126.815 63.7788 126.895 63.819C126.975 63.8591 127.01 63.9344 127 64.0448C126.985 64.1401 126.98 64.2254 126.98 64.3007V64.5164C126.98 64.682 127.04 64.7823 127.165 64.8275C127.315 64.8978 127.495 64.8978 127.71 64.8275C127.92 64.7573 128.07 64.7021 128.15 64.6619C128.34 64.5816 128.53 64.4913 128.715 64.396C128.9 64.3007 129.09 64.2053 129.28 64.105C129.335 64.0799 129.395 64.0448 129.465 64.0147C129.535 63.9795 129.6 63.9494 129.67 63.9243C129.74 63.8842 129.815 63.8491 129.895 63.819C129.975 63.8491 130.02 63.8842 130.02 63.9344C130.02 63.9845 129.985 64.0197 129.915 64.0498C129.355 64.406 128.745 64.7372 128.085 65.0382C127.975 65.0934 127.825 65.1486 127.635 65.2038C127.445 65.259 127.24 65.244 127.02 65.1637C126.815 65.0834 126.685 64.963 126.63 64.8024C126.575 64.6469 126.555 64.4763 126.57 64.2956H126.555Z" fill="#1F1B28"/>
<path d="M130.085 64.5817C130.275 64.4713 130.47 64.3559 130.66 64.2304C130.85 64.105 131.035 64.0247 131.215 63.9846C131.49 63.9143 131.645 64.0147 131.685 64.2706C131.71 64.3809 131.7 64.5515 131.645 64.7874C131.59 65.0232 131.55 65.239 131.52 65.4447C131.49 65.5801 131.535 65.6554 131.645 65.6705C131.77 65.7006 131.91 65.7006 132.065 65.6705C132.22 65.6454 132.38 65.6052 132.535 65.5551C132.69 65.5049 132.845 65.4497 132.985 65.3895C133.125 65.3293 133.25 65.2741 133.345 65.2339C133.62 65.1085 133.935 64.968 134.29 64.8024C134.645 64.6368 134.98 64.4813 135.295 64.3308C135.65 64.1652 136.02 63.9946 136.405 63.814C136.5 63.8441 136.535 63.8742 136.51 63.9193C136.48 63.9595 136.455 63.9896 136.43 63.9996C135.87 64.2856 135.315 64.5766 134.775 64.8677C134.235 65.1537 133.685 65.4397 133.12 65.7106C132.845 65.8461 132.56 65.9665 132.26 66.0618C131.96 66.1572 131.67 66.1722 131.395 66.102C131.11 66.0217 130.965 65.826 130.965 65.525C130.98 65.3192 131.015 65.1286 131.07 64.9479C131.125 64.7673 131.18 64.5917 131.235 64.411C131.26 64.3408 131.27 64.2956 131.255 64.2756C131.24 64.2555 131.195 64.2655 131.11 64.3057C130.945 64.401 130.79 64.4964 130.65 64.5967C130.505 64.692 130.36 64.7874 130.21 64.8827C130.02 64.9931 129.86 64.978 129.74 64.8426C129.67 64.7623 129.65 64.6368 129.68 64.4713C129.71 64.3057 129.755 64.1301 129.825 63.9344C129.905 63.7537 130.01 63.6885 130.135 63.7287C130.23 63.7588 130.27 63.819 130.26 63.9143C130.22 64.0247 130.175 64.1552 130.125 64.3057C130.075 64.4562 130.065 64.5465 130.095 64.5716L130.085 64.5817Z" fill="#1F1B28"/>
<path d="M141.67 63.819C141.78 63.834 141.84 63.8742 141.855 63.9444C141.87 64.0146 141.84 64.0598 141.775 64.0899C141.42 64.2806 141.095 64.4462 140.8 64.5867C140.505 64.7221 140.18 64.8827 139.825 65.0583C139.62 65.1536 139.385 65.249 139.115 65.3443C138.85 65.4396 138.57 65.5249 138.285 65.5902C138 65.6604 137.71 65.7056 137.425 65.7357C137.135 65.7658 136.875 65.7407 136.645 65.6755C136.44 65.6203 136.28 65.5149 136.16 65.3543C136.045 65.1988 136 64.978 136.025 64.7071C136.04 64.5716 136.08 64.4211 136.15 64.2655C136.22 64.11 136.31 63.9595 136.415 63.824C136.525 63.6885 136.65 63.5781 136.795 63.4928C136.94 63.4125 137.1 63.3774 137.28 63.3874C137.54 63.4176 137.705 63.548 137.775 63.7788C137.79 63.8089 137.795 63.8491 137.795 63.9143C137.795 63.9795 137.765 64.0197 137.715 64.0498C137.59 64.0899 137.505 64.0347 137.45 63.8842C137.34 63.7337 137.21 63.6985 137.06 63.7788C136.895 63.8591 136.76 64.0046 136.65 64.2003C136.54 64.401 136.47 64.5967 136.445 64.7874C136.42 64.968 136.445 65.0934 136.54 65.1687C136.63 65.244 136.755 65.2891 136.92 65.3042C137.195 65.3343 137.51 65.3192 137.875 65.264C138.24 65.2088 138.57 65.1286 138.87 65.0182C139.265 64.8676 139.665 64.7071 140.06 64.5465C140.455 64.3809 140.855 64.2053 141.25 64.0096C141.385 63.9544 141.485 63.9143 141.535 63.8842C141.59 63.8591 141.64 63.834 141.68 63.824L141.67 63.819Z" fill="#1F1B28"/>
<path d="M141.895 64.2956C141.92 64.5014 142.035 64.6168 142.235 64.6368C142.435 64.6569 142.65 64.6368 142.89 64.5867C143.13 64.5315 143.355 64.4612 143.57 64.3709C143.78 64.2806 143.92 64.2254 143.99 64.1953C144.06 64.1702 144.14 64.1351 144.235 64.0899C144.33 64.0498 144.425 64.0096 144.52 63.9645C144.63 63.9093 144.74 63.8591 144.85 63.819C144.93 63.834 144.98 63.8691 144.995 63.9243C145.01 63.9795 144.98 64.0197 144.915 64.0498C144.82 64.105 144.725 64.1551 144.63 64.2053C144.535 64.2555 144.43 64.3057 144.32 64.3609C144.155 64.4411 143.985 64.5315 143.805 64.6268C143.625 64.7221 143.44 64.8074 143.24 64.8827C143.04 64.958 142.845 65.0131 142.655 65.0483C142.465 65.0834 142.28 65.0784 142.1 65.0382C141.91 64.9981 141.75 64.9028 141.63 64.7623C141.505 64.6168 141.465 64.4361 141.505 64.2154C141.585 63.8742 141.77 63.6333 142.06 63.4928C142.25 63.4125 142.41 63.3925 142.53 63.4426C142.655 63.4928 142.735 63.5681 142.775 63.6785C142.8 63.7487 142.8 63.844 142.775 63.9645C142.745 64.0899 142.64 64.1852 142.445 64.2555C142.365 64.2856 142.28 64.3057 142.2 64.3157C142.12 64.3308 142.015 64.3207 141.89 64.2956H141.895ZM142 64.0096C142 64.0096 142.05 64.0096 142.115 63.9996C142.175 63.9946 142.24 63.9845 142.3 63.9695C142.36 63.9544 142.415 63.9344 142.455 63.9093C142.495 63.8842 142.505 63.8491 142.475 63.8039C142.46 63.7788 142.425 63.7638 142.37 63.7638C142.22 63.7939 142.095 63.8742 142 64.0096Z" fill="#1F1B28"/>
</g>
<defs>
<clipPath id="clip0_2_5">
<rect width="145" height="104" fill="white"/>
</clipPath>
</defs>
</svg>
