<svg width="36" height="36" viewBox="0 0 36 36" fill="none" xmlns="http://www.w3.org/2000/svg">
<path d="M24.0006 13.5V9C24.0006 5.68629 21.3143 3 18.0006 3C14.6868 3 12.0006 5.68629 12.0006 9V13.5M5.38856 15.5279L4.48856 25.1279C4.23266 27.8575 4.10472 29.2223 4.55763 30.2764C4.9555 31.2024 5.65273 31.9681 6.53758 32.4507C7.54484 33 8.9156 33 11.6571 33H24.344C27.0855 33 28.4563 33 29.4635 32.4507C30.3484 31.9681 31.0456 31.2024 31.4435 30.2764C31.8964 29.2223 31.7684 27.8575 31.5125 25.1279L30.6125 15.5279C30.3965 13.223 30.2884 12.0706 29.7701 11.1992C29.3135 10.4319 28.6391 9.81767 27.8324 9.43477C26.9165 9 25.759 9 23.444 9L12.5571 9C10.2421 9 9.08457 9 8.16868 9.43476C7.36205 9.81766 6.68757 10.4319 6.23105 11.1992C5.71269 12.0706 5.60465 13.223 5.38856 15.5279Z" stroke="#9344AD" stroke-width="2" stroke-linecap="round" stroke-linejoin="round"/>
</svg>
